<svg width="1980" height="1980" xmlns="http://www.w3.org/2000/svg" xmlns:xlink="http://www.w3.org/1999/xlink" overflow="hidden"><defs><clipPath id="clip0"><rect x="466" y="256" width="1980" height="1980"/></clipPath><clipPath id="clip1"><rect x="693" y="489" width="1582" height="1583"/></clipPath><clipPath id="clip2"><rect x="693" y="489" width="1582" height="1583"/></clipPath><clipPath id="clip3"><rect x="693" y="489" width="1582" height="1583"/></clipPath></defs><g clip-path="url(#clip0)" transform="translate(-466 -256)"><path d="M466 1246C466 699.238 909.238 256 1456 256 2002.76 256 2446 699.238 2446 1246 2446 1792.76 2002.76 2236 1456 2236 909.238 2236 466 1792.76 466 1246Z" fill="#49A078" fill-rule="evenodd"/><g clip-path="url(#clip1)"><g clip-path="url(#clip2)"><g clip-path="url(#clip3)"><path d="M3027.79 5396.35C3027.32 5396.1 3026.79 5395.51 3026.58 5395.06 3026.2 5394.22 3025.55 5386.91 3024.59 5372.68 3023.89 5362.26 3023.6 5330.64 3024.1 5317.84 3024.88 5297.49 3026.13 5284.64 3028.65 5271.1 3029.95 5264.19 3029.95 5264.14 3029.36 5264.14 3029.12 5264.14 3025.87 5265.92 3022.11 5268.19 3018.36 5270.36 3008.31 5276.34 2999.79 5281.38 2982.34 5291.76 2979.36 5293.58 2974.62 5297.04 2966.55 5302.97 2958.04 5311.27 2954.23 5316.95 2950.8 5322.09 2948.02 5328.37 2946.45 5334.49 2946.24 5335.28 2945.78 5336.27 2945.42 5336.62 2944.61 5337.46 2943.08 5337.51 2942.1 5336.67 2941.11 5335.88 2941.15 5334.15 2942.27 5330 2946.21 5315.17 2954.71 5303.56 2971.13 5290.62 2976.51 5286.32 2979.51 5284.35 3015.98 5260.78 3025.15 5254.85 3032.89 5249.76 3033.19 5249.46 3033.49 5249.17 3034.79 5245.66 3036.08 5241.71 3042.2 5222.98 3050.35 5207.57 3062.26 5192.3 3067.6 5185.48 3073.38 5179.36 3083.49 5169.77 3102.6 5151.74 3107.15 5146.95 3111.83 5139.78 3116.74 5132.27 3121.29 5120.71 3122.34 5113.1 3123.96 5101.25 3123.73 5087.96 3121.7 5076.25 3119.98 5066.27 3115.95 5048.97 3109.96 5025.8 3106.91 5013.99 3106.86 5013.8 3106.41 5013.85 3106.2 5013.85 3105.47 5014.54 3104.83 5015.38 3102.88 5018 3097.47 5023.13 3093.81 5025.85 3086.2 5031.53 3079.57 5035.04 3067.82 5039.64 3052.81 5045.47 3045.57 5048.53 3040.93 5050.95 3017.71 5063.05 2998.87 5080.25 2984.66 5102.23 2980.15 5109.2 2978.56 5112.02 2975 5119.43 2971.89 5125.95 2969.37 5132.32 2967.26 5138.99 2966.42 5141.66 2965.5 5143.93 2965.13 5144.28 2963.57 5145.71 2961.13 5144.53 2961.13 5142.25 2961.13 5139.93 2965.03 5126.59 2967.96 5118.98 2969.8 5114.19 2974.69 5103.67 2977.19 5099.17 2992.98 5070.81 3016.04 5048.53 3044.31 5034.35 3047.99 5032.47 3052.94 5030.1 3055.32 5029.01 3072.38 5021.36 3079.38 5017.11 3086.66 5009.99 3091.75 5005 3095.65 4998.68 3097.97 4991.56 3100.06 4985.14 3100.1 4984.3 3098.7 4975.95 3094.33 4949.96 3094.48 4928.33 3099.18 4904.56 3106.09 4869.55 3118.07 4837.82 3136.6 4805.4 3140.24 4799.04 3146.09 4790.09 3150.58 4784.01 3152.84 4780.97 3155.03 4777.94 3155.46 4777.27 3156.84 4775.15 3157.51 4772.56 3157.51 4769.32 3157.51 4764.34 3155.88 4760.79 3152.25 4757.86 3145.81 4752.68 3137.84 4751.83 3129.22 4755.43 3124.08 4757.58 3117.37 4763.45 3112.76 4769.84 3109.85 4773.87 3105.6 4781 3100.37 4790.62 3094.97 4800.56 3093.12 4803.68 3089.39 4809.17 3075.02 4830.27 3059.16 4848.84 3039.82 4867.22 3010.7 4894.89 2996.6 4911.36 2984.73 4931.58 2978.72 4941.81 2975.45 4948.98 2972.12 4959.1 2967.1 4974.42 2964.95 4987.22 2961.47 5022.64 2958.59 5051.99 2956.16 5066.07 2951.3 5081.58 2945.59 5099.86 2933.35 5123.58 2919.85 5142.55 2906.58 5161.22 2895.07 5173.23 2878.65 5185.43 2873 5189.63 2848.53 5206.38 2847.37 5206.83 2846.62 5207.12 2846.29 5207.07 2845.53 5206.48 2844.56 5205.74 2844.26 5204.75 2844.58 5203.42 2844.72 5202.92 2846.37 5201.49 2849.63 5199.17 2865.12 5188.05 2876.03 5178.76 2888.47 5166.02 2896.86 5157.42 2900.12 5153.72 2906.05 5146.11 2926.91 5119.18 2940.2 5087.71 2944.45 5055.05 2945.31 5048.38 2946.02 5038.5 2946.46 5026.84 2947.27 5005.5 2948.2 4991.46 2949.65 4978.77 2953.82 4942.31 2962.88 4916.35 2979.04 4894.56 2981.4 4891.39 2982.09 4890.22 2981.76 4890.03 2980.6 4889.37 2974.01 4891.1 2964.72 4894.52 2945.43 4901.62 2923.17 4908.64 2898.78 4915.31 2885.45 4918.97 2881.61 4919.77 2863.44 4922.72 2846.28 4925.5 2840.31 4926.77 2832.44 4929.25 2801.57 4939.02 2784.11 4959.75 2780.73 4990.58 2780.24 4995.07 2780.24 5007.57 2780.74 5012.81 2781.89 5025.01 2783.63 5033.36 2790.1 5057.62 2795.61 5078.27 2797.65 5087.51 2799.07 5098.18 2800.91 5111.97 2800.87 5120.12 2798.9 5132.17 2796.86 5144.72 2792.17 5156.23 2785.13 5166.02 2782.22 5170.02 2776.37 5175.8 2772.58 5178.42 2769.12 5180.74 2762.31 5184.3 2760.56 5184.64 2758.31 5185.09 2756.76 5182.07 2758.41 5180.39 2758.77 5180.05 2760.38 5179.01 2761.99 5178.17 2779.92 5168.88 2791.15 5145.51 2790.3 5119.33 2789.82 5105.05 2786.51 5090.03 2778.74 5067.2 2769.25 5039.24 2766.82 5030.69 2764.27 5016.07 2761.6 5000.85 2762.22 4985.44 2765.99 4972.89 2766.96 4969.68 2766.73 4969.83 2758.08 4977.58 2737.97 4995.61 2718.65 5016.37 2693.7 5046.65 2683.05 5059.6 2679.94 5063.7 2675.73 5070.22 2666.33 5084.79 2659.24 5101.34 2655.05 5118.49 2652.16 5130.3 2650.89 5140.18 2650.5 5153.81 2650.29 5161.57 2650.29 5161.62 2649.46 5162.26 2647.12 5164.14 2645.21 5161.72 2642.73 5153.96 2637.67 5138 2639.83 5117.94 2649.17 5093.79 2656.82 5074.02 2667.33 5053.91 2678.94 5036.72 2689.81 5020.61 2698.14 5010.63 2715.37 4992.95 2737.53 4970.27 2755.14 4954.36 2777.16 4937.28 2779.68 4935.33 2781.65 4933.6 2781.55 4933.43 2781.45 4933.27 2777.9 4933.13 2773.64 4933.13 2758.69 4933.12 2742.12 4931.66 2723.07 4928.67 2715.28 4927.44 2712.38 4926.93 2697.39 4924.05 2680.39 4920.79 2674.17 4919.98 2662.22 4919.48 2635.97 4918.34 2613.93 4923.61 2597.21 4935.01 2588.69 4940.82 2582.24 4947.44 2575.82 4956.98 2572.65 4961.72 2570.08 4964.88 2568.97 4965.48 2567.58 4966.22 2566.41 4965.53 2565.37 4963.4 2564.63 4961.87 2564.54 4961.23 2564.54 4958.12 2564.54 4953.97 2564.97 4952.38 2567.24 4947.84 2571.7 4938.91 2582.77 4927.89 2596.87 4918.33 2614.94 4906.08 2641.32 4900.57 2673.22 4902.38 2681.15 4902.83 2692.02 4903.94 2709.57 4906.11 2734.48 4909.19 2740.06 4909.72 2753.47 4910.24 2771.55 4910.94 2793.87 4909.64 2815.43 4906.61 2857.23 4900.75 2906.52 4887.12 2957.46 4867.37 2969.32 4862.76 2971.29 4861.98 2976.74 4859.65 3031.72 4836.19 3064.61 4806.52 3075.92 4770.19 3080.37 4755.92 3081.09 4741.93 3077.93 4731.62 3073.88 4718.43 3067.13 4710.73 3056.65 4707.35 3050.5 4705.37 3044.06 4704.65 3032.64 4704.66 3019.55 4704.66 3009.54 4706.34 2997.63 4710.54 2984.63 4715.12 2977.23 4721.39 2968.38 4735.32 2962.94 4743.88 2958.91 4751.91 2951.3 4769.34 2942.1 4790.43 2935.08 4803.96 2928.88 4812.54 2926.17 4816.29 2920.68 4822.74 2917.74 4825.62 2910.9 4832.32 2900.98 4839.12 2891.91 4843.33 2878.31 4849.65 2856.69 4856.1 2838.85 4859.15 2834.21 4859.95 2833.33 4860.02 2832.62 4859.61 2831 4858.73 2830.94 4856.05 2832.52 4855.21 2832.93 4854.98 2835.4 4854.2 2838.02 4853.44 2855.7 4848.36 2874.84 4840.29 2887.77 4832.48 2898.51 4825.98 2909.12 4814.97 2915.67 4803.52 2920.59 4794.92 2924.31 4785.22 2932.89 4758.73 2938.48 4741.45 2941.1 4734.64 2946.04 4724.64 2947.26 4722.16 2948.16 4720.02 2948.03 4719.89 2947.89 4719.78 2941.98 4720.67 2934.87 4721.91 2914.32 4725.49 2900.38 4727.51 2888.27 4728.64 2881.4 4729.29 2863.04 4729.43 2855.99 4728.88 2850.82 4728.47 2849.19 4728.47 2846.66 4728.85 2836.81 4730.25 2827.01 4733.65 2814.92 4739.84 2802.28 4746.32 2795.01 4751.23 2770.91 4769.55 2749.84 4785.56 2740.11 4792.11 2727.97 4798.44 2711.79 4806.87 2697.92 4810.74 2678.39 4812.26 2662.12 4813.53 2646.9 4816.5 2637.87 4820.17 2629.86 4823.42 2620.78 4828.57 2613.21 4834.17 2606.11 4839.4 2593.79 4850.46 2582.47 4861.78 2576.69 4867.55 2575.59 4868.5 2574.71 4868.5 2573.34 4868.5 2572.36 4867.45 2572.36 4865.96 2572.36 4864.93 2572.97 4864.11 2577.65 4858.86 2583.36 4852.48 2594.45 4841.11 2600.82 4835.12 2612.1 4824.51 2624.07 4816.43 2636.71 4810.89 2644.69 4807.39 2662.43 4803.17 2676.22 4801.49 2686.3 4800.26 2691.78 4799.16 2699.1 4796.88 2712.47 4792.72 2727.17 4784.52 2742.57 4772.63 2745.34 4770.5 2759.7 4758.72 2767.24 4752.4 2785.94 4736.72 2798.82 4727.58 2811.08 4721.27 2812.35 4720.61 2813.47 4719.93 2813.59 4719.74 2813.69 4719.56 2812.19 4718.63 2810.19 4717.67 2802.21 4713.85 2795.28 4709.22 2787.24 4702.34 2778.45 4694.82 2772.7 4688.61 2762.96 4676.15 2753.36 4663.88 2746.29 4656.24 2737.33 4648.5 2732.51 4644.33 2727.78 4641.29 2721.94 4638.6 2712.86 4634.41 2704.91 4632.4 2693.89 4631.5 2687.85 4630.98 2672.05 4631.26 2663.05 4632.02 2650.11 4633.08 2640.36 4633.38 2631.71 4632.96 2624.05 4632.62 2617.85 4632.37 2593.2 4631.56 2582.92 4631.22 2579.44 4631.38 2574.68 4632.4 2566.81 4634.1 2560.38 4637.03 2550.85 4643.28 2541.22 4649.61 2540.05 4650.33 2534.38 4653.43 2512.64 4665.31 2498.87 4669.85 2484.51 4669.88 2479.62 4669.89 2475.1 4669.42 2473.9 4668.76 2472.46 4667.98 2472.61 4665.01 2474.12 4664.5 2474.52 4664.4 2478.14 4664.22 2482.18 4664.22 2490.09 4664.16 2492.61 4663.76 2498.25 4661.8 2505.99 4659.1 2518.86 4651.06 2534.42 4639.21 2547.52 4629.22 2554.26 4625.46 2566.18 4621.47 2568.55 4620.68 2570.54 4619.89 2570.6 4619.72 2570.66 4619.54 2568.71 4618.58 2566.28 4617.57 2544.05 4608.36 2522.52 4593.44 2505.56 4575.48 2496.31 4565.69 2484.01 4549.37 2484.01 4546.88 2484.01 4545.86 2485.39 4544.37 2486.35 4544.37 2487.6 4544.37 2488.28 4545 2490.9 4548.57 2516.94 4583.99 2556.22 4608.31 2599.2 4615.65 2608.09 4617.17 2612.88 4617.6 2622.87 4617.79 2632.84 4617.97 2639.11 4617.74 2652.72 4616.53 2667.34 4615.26 2673 4615 2686.89 4615 2698.37 4615 2701.58 4615.11 2704.72 4615.58 2706.82 4615.92 2708.66 4616.05 2708.81 4615.87 2708.97 4615.69 2706.74 4612.98 2703.87 4609.81 2687.05 4591.12 2682.45 4584.46 2678.93 4573.75 2676.51 4566.4 2676.23 4564.21 2676.24 4552.73 2676.24 4544.76 2676.38 4541.24 2676.88 4537 2677.75 4529.53 2677.78 4518.33 2676.95 4512.92 2675 4500.28 2669.93 4487.6 2662.24 4476.13 2653.29 4462.77 2644.51 4451.86 2633.47 4440.35 2628.5 4435.17 2628.34 4434.96 2628.44 4433.71 2628.58 4432.09 2629.87 4430.96 2631.2 4431.3 2632.98 4431.76 2646.55 4445.18 2654.4 4454.27 2665.28 4466.85 2672.59 4477.05 2677.31 4486.22 2685.34 4501.83 2688.46 4516.79 2687.45 4534.88 2686.74 4547.71 2687.08 4557.97 2688.42 4563.82 2689.16 4567.08 2690.99 4571.97 2692.5 4574.78 2695.75 4580.8 2698.96 4584.62 2713.22 4599.4 2724.8 4611.41 2729.02 4616.26 2732.33 4621.36 2733.72 4623.51 2734.13 4623.88 2736.45 4625.07 2744.19 4629.06 2752.29 4635.24 2763.12 4645.43 2768.57 4650.55 2772.41 4654.71 2780.29 4664.03 2789.02 4674.34 2797.24 4681.92 2806.75 4688.44 2818.29 4696.33 2832.2 4701.02 2847.9 4702.31 2854.08 4702.84 2866.55 4702.78 2874.1 4702.14 2890.09 4700.89 2902.37 4698.62 2940.68 4689.84 3006.87 4674.66 3005.1 4675.09 3011.33 4672.71 3022.88 4668.28 3030.26 4661.63 3033.9 4652.35 3035.42 4648.51 3035.81 4646.52 3035.81 4642.7 3035.8 4633.46 3030.78 4623.95 3020.15 4613.04 3008.89 4601.48 2996.24 4593.67 2976.46 4586.06 2966.21 4582.11 2958.46 4579.73 2934.62 4573.18 2908.52 4566.02 2900.36 4563.38 2888.19 4558.19 2854.8 4543.94 2828.35 4526.16 2808.55 4504.65 2793.45 4488.24 2778.42 4466.02 2768.07 4444.81 2760.93 4430.18 2757.2 4420.33 2750.95 4399.68 2740.92 4366.51 2739.18 4361.36 2732.8 4345.98 2730.97 4341.57 2728.33 4335.15 2726.94 4331.71 2721.47 4318.22 2717.74 4311.75 2712.09 4305.95 2706.59 4300.31 2701.98 4297.75 2694.06 4295.94 2684.08 4293.68 2674.35 4293.72 2660.22 4296.12 2647.09 4298.33 2637.49 4300.81 2609.54 4309.21 2589.21 4315.31 2583.19 4316.78 2571.44 4318.47 2551.67 4321.33 2529.37 4321.66 2513.35 4319.35 2498.94 4317.28 2484.6 4312.47 2471.34 4305.3 2466.01 4302.42 2459.15 4297.99 2458.88 4297.26 2458.4 4296.01 2458.69 4294.77 2459.59 4294.04 2460.81 4293.05 2461.44 4293.23 2466.04 4295.87 2475.59 4301.35 2487.18 4305.9 2497.85 4308.36 2507.02 4310.47 2512.21 4311.11 2522.69 4311.37 2538.59 4311.78 2554.2 4310.31 2570.86 4306.83 2581.12 4304.69 2586.61 4302.99 2605.87 4296.02 2636 4285.11 2648.01 4281.45 2663.22 4278.55 2673.28 4276.63 2674.98 4276.45 2683.06 4276.46 2692.68 4276.47 2701.1 4277.67 2707.1 4279.89 2709.75 4280.87 2709.73 4280.87 2709.73 4280.12 2709.73 4279.14 2705.9 4270.01 2702.7 4263.4 2696.27 4250.11 2690.05 4240.7 2681.69 4231.6 2668.29 4217.03 2652.13 4207.88 2631.89 4203.42 2626.59 4202.25 2619.51 4201.06 2604.37 4198.83 2571.78 4194 2557.14 4190.6 2541.6 4184.26 2534.32 4181.29 2528.15 4178.15 2519.19 4172.85 2497.84 4160.21 2491.61 4155.87 2484.66 4148.75 2479.89 4143.88 2476.97 4139.65 2475.31 4135.25 2473.82 4131.3 2473.72 4130.19 2474.79 4129.09 2476.33 4127.52 2477.91 4128.05 2479.14 4130.53 2481.03 4134.35 2486.52 4138.58 2502.52 4148.55 2524.04 4161.97 2537.77 4168.22 2558.36 4173.98 2575.31 4178.71 2596.19 4181.88 2610.54 4181.9 2618.06 4181.91 2631.44 4183.17 2641.72 4184.83 2648.71 4185.96 2656.63 4188.57 2666.67 4193.05 2668.57 4193.9 2670.21 4194.51 2670.3 4194.41 2670.69 4194.01 2664.41 4180.88 2660.13 4173.18 2649.38 4153.81 2637.4 4137.8 2621.38 4121.37 2606.43 4106.04 2592 4094.58 2574.2 4083.89 2571.63 4082.35 2569.25 4080.71 2568.91 4080.24 2568.13 4079.18 2568.48 4077.8 2569.78 4076.81 2570.66 4076.14 2570.67 4076.14 2572.93 4076.91 2576.2 4078.03 2582.74 4081.1 2586.75 4083.38 2593.07 4086.99 2610.62 4100.65 2623.18 4111.75 2660.7 4144.89 2690.71 4184.6 2713.39 4231.12 2725.87 4256.7 2743.37 4301.1 2749.74 4323.29 2754.89 4341.24 2758.8 4352.18 2762.26 4358.34 2763.97 4361.38 2766.48 4364.33 2767.64 4364.67 2768.8 4365.01 2770.21 4363.34 2774.95 4356.12 2784.16 4342.09 2795.18 4327.07 2806.44 4313.21 2815.54 4302 2819.86 4297.9 2837.43 4283.79 2854.39 4270.16 2860.23 4264.93 2867.33 4257.04 2880.27 4242.62 2886.42 4232.9 2891.17 4219.34 2896.13 4205.18 2898.77 4186.22 2898.33 4168.05 2898.03 4155.65 2896.79 4146.04 2893.87 4133.23 2892.73 4128.24 2892.67 4127.74 2893.13 4126.91 2893.41 4126.41 2894.05 4125.85 2894.56 4125.66 2896.34 4125.02 2897.03 4125.84 2900.11 4132.17 2904.29 4140.76 2906.97 4148.61 2908.92 4157.92 2912.17 4173.4 2912.15 4191.63 2908.9 4207.89 2904.01 4232.21 2891.25 4254.24 2869.34 4276.16 2866.36 4279.14 2858.15 4287.1 2851.09 4293.86 2829.52 4314.52 2816.74 4327.99 2808.07 4339.24 2795.82 4355.11 2788.5 4370.17 2785.88 4384.84 2785.03 4389.62 2785.02 4401.91 2785.86 4406.48 2786.88 4412.03 2789.87 4421.42 2792.68 4427.95 2801.07 4447.39 2814.22 4466.36 2830.98 4483.16 2840.58 4492.79 2849.02 4499.45 2860.77 4506.65 2895.5 4527.93 2933.83 4541.44 2968.8 4544.75 2975.32 4545.37 2989.5 4545.28 2995.74 4544.58 3013.18 4542.62 3027.65 4537.74 3039.81 4529.71 3046.03 4525.6 3051.45 4520.94 3061.59 4510.99 3071.96 4500.82 3075.57 4497.43 3079.99 4493.77 3091.22 4484.44 3103.27 4476.46 3116.06 4469.85 3119.39 4468.13 3123.04 4466.01 3124.17 4465.15 3128.9 4461.5 3131.17 4456.25 3131.17 4448.96 3131.17 4434.02 3118.49 4414.59 3095.83 4394.79 3088.43 4388.33 3082.6 4383.91 3064.65 4371.16 3051.67 4361.93 3040.74 4353.91 3035.64 4349.85 3022.37 4339.28 3009.23 4326.14 3001.48 4315.69 2999.82 4313.44 2999.47 4313.16 2997.44 4312.39 2993.5 4310.89 2990.35 4310.36 2985.3 4310.36 2976.09 4310.35 2969.53 4312.47 2949.63 4321.82 2940.49 4326.13 2936.76 4327.69 2931.02 4329.64 2922.83 4332.44 2912.52 4334.61 2903.62 4335.43 2898.48 4335.89 2887.38 4335.89 2882.45 4335.44 2874.71 4334.7 2866.74 4333.21 2865.61 4332.29 2864.55 4331.44 2864.47 4329.59 2865.44 4328.6 2866.26 4327.76 2867.19 4327.74 2872.72 4328.49 2878.9 4329.3 2892.19 4329.3 2898.28 4328.5 2910.12 4326.94 2920.16 4324.19 2930.34 4319.72 2933.99 4318.12 2937.59 4316.22 2952.96 4307.79 2966.52 4300.35 2976.65 4297.05 2986.97 4296.72 2989.08 4296.66 2989.3 4296.61 2989.24 4295.96 2989.22 4295.55 2988.03 4292.35 2986.62 4288.78 2982.05 4277.16 2979.67 4266.25 2978.1 4249.62 2977.55 4243.86 2977.4 4239.8 2977.39 4230.82 2977.38 4219.84 2977.56 4214.93 2978.66 4193.2 2979.4 4178.87 2979.65 4158.55 2979.16 4152.34 2977.35 4129.04 2971.96 4111.79 2961.53 4095.92 2957.92 4090.41 2954.61 4086.33 2948.8 4080.23 2939.03 4069.97 2928.61 4061.19 2915.62 4052.27 2898.63 4040.6 2896.46 4039.55 2889.28 4039.53 2882.63 4039.52 2875.29 4041.32 2861.72 4046.3 2845.1 4052.41 2831.09 4056.26 2815.6 4058.99 2793.05 4062.96 2770.72 4063.87 2748.42 4061.72 2741.2 4061.02 2735.4 4060.23 2734.35 4059.81 2733.19 4059.33 2732.6 4057.89 2733.06 4056.65 2733.67 4054.99 2734.45 4054.89 2741.39 4055.52 2751.98 4056.5 2760.84 4056.86 2769.14 4056.63 2800.75 4055.77 2828.39 4049.98 2858.27 4037.96 2866.81 4034.52 2869.74 4033.48 2875.07 4031.97 2877.34 4031.32 2879.27 4030.73 2879.36 4030.64 2879.8 4030.19 2878.18 4029.25 2868.48 4024.33 2826.9 4003.19 2786.94 3990.24 2740.74 3982.92 2734.81 3981.98 2734.18 3981.81 2733.49 3981.01 2732.61 3979.97 2732.55 3979.24 2733.28 3978.17 2734.2 3976.83 2734.94 3976.78 2741.76 3977.61 2782.15 3982.56 2821.88 3993.33 2859.11 4009.41 2876.76 4017.03 2898.34 4028.23 2914.29 4038.03 2917.22 4039.83 2919.73 4041.24 2919.85 4041.17 2919.99 4041.09 2918.74 4038.36 2917.1 4035.1 2910.83 4022.61 2906.83 4010.76 2904.46 3997.61 2902.47 3986.57 2902.34 3983.99 2902.61 3960.16 2902.85 3937.55 2902.78 3934.88 2901.42 3927.95 2900.7 3924.24 2899.17 3919.31 2897.51 3915.36 2894.43 3908.04 2890.38 3903.01 2884.11 3898.7 2880.58 3896.27 2879.94 3895.3 2880.8 3893.72 2881.08 3893.22 2881.72 3892.66 2882.23 3892.47 2883.02 3892.19 2883.51 3892.33 2885.39 3893.32 2892.57 3897.14 2898.75 3904.12 2902.79 3912.95 2908.58 3925.64 2909.78 3934.57 2909.73 3964.61 2909.7 3980.37 2910.23 3986.83 2912.34 3996.58 2916.2 4014.49 2923.59 4030.53 2934.59 4044.94 2937.97 4049.38 2944.9 4057.33 2953.83 4067.05 2969.17 4083.74 2976.42 4093.62 2982.59 4106.26 2988.64 4118.64 2992.96 4136.52 2994.49 4155.59 2994.99 4161.76 2995.06 4182.72 2994.68 4209.1 2994.36 4230.63 2994.54 4236.29 2995.83 4247.4 2997.79 4264.18 3000.5 4274.31 3006.1 4285.87 3011.28 4296.54 3018.96 4306.53 3030.43 4317.44 3037.25 4323.94 3046.1 4331.17 3046.6 4330.66 3046.67 4330.61 3046.46 4329.04 3046.1 4327.25 3044.21 4317.84 3043.48 4309.83 3043.48 4298.49 3043.48 4278.03 3046.79 4260.77 3054.14 4242.99 3056.31 4237.75 3057.85 4234.29 3064.14 4220.56 3071.63 4204.2 3074.25 4195.79 3075.47 4184.24 3076.46 4174.79 3075.3 4166.94 3071.66 4158.69 3070.36 4155.72 3070.34 4154.6 3071.59 4153.7 3073.58 4152.27 3075.12 4153.55 3077.58 4158.77 3081.92 4167.91 3083.52 4177.89 3082.5 4189.44 3081.45 4201.24 3079.27 4209.27 3071.47 4230.13 3065.15 4247 3062.91 4254.13 3061.34 4262.28 3059.31 4272.72 3058.65 4280.7 3058.91 4291.17 3059.41 4310.58 3063.56 4327.71 3072.04 4345.31L3074.56 4350.56 3079.27 4353.68C3100.88 4368 3110.27 4375.1 3121.72 4385.77 3131.17 4394.58 3134.97 4399.08 3142.5 4410.34 3152.96 4426 3157.97 4430.67 3167.11 4433.33 3170.76 4434.39 3175.83 4434.38 3178.92 4433.3 3186.92 4430.51 3191.45 4422.03 3193.73 4405.56 3194.48 4400.2 3194.58 4379.16 3193.9 4371.36 3192.15 4351.18 3189.69 4335.21 3182.96 4300.41 3176.6 4267.47 3170.39 4245.71 3159.81 4219.3 3148.77 4191.73 3138.02 4171.24 3108.98 4122.42 3091.59 4093.19 3080.77 4074.27 3075.46 4063.78 3063.75 4040.68 3057.52 4016.93 3056.09 3989.93 3055.47 3978.06 3056.46 3963.54 3058.81 3950.25 3063.66 3922.78 3070.79 3897.04 3077.16 3884.04 3081.15 3875.92 3085.86 3871.1 3089.86 3871.09 3092.37 3871.09 3093.58 3873.78 3091.89 3875.61 3090.01 3877.67 3086.96 3887.21 3081.49 3908.19 3074.17 3936.29 3071.62 3950.46 3070.28 3970.6 3069.34 3984.68 3070.35 3995.77 3073.87 4010.09 3079.26 4032.03 3089.18 4052.74 3110.13 4085.82 3120.49 4102.17 3129.53 4117.56 3145 4145.17 3164.1 4179.25 3166.46 4183.81 3174.46 4202.1 3176.28 4206.27 3177.96 4209.28 3178.47 4209.28 3178.9 4209.28 3179.07 4206.87 3179.67 4193.04 3181.9 4141.53 3184.86 4112.58 3191.55 4076.77 3197.21 4046.41 3207.93 4007.26 3216.77 3984.62 3226.99 3958.44 3234.67 3942.39 3238.12 3939.99 3240.26 3938.5 3242.44 3939.08 3243.38 3941.4 3245.14 3945.71 3242.65 3954.8 3234 3975.62 3220.79 4007.41 3209 4057.58 3204.53 4101.06 3201.66 4128.94 3201.14 4147.19 3201.97 4190.1 3202.8 4233.11 3203.46 4246.84 3205.71 4267.92 3207.19 4281.93 3208.32 4289.22 3211.99 4308.37 3218.75 4343.63 3224.03 4383.62 3224.82 4405.56 3225.41 4422.01 3226.65 4427.92 3230.23 4431.44 3234.66 4435.8 3242.35 4434.83 3252.88 4428.57 3258.01 4425.53 3278.85 4411.28 3282.64 4408.23 3291.25 4401.3 3299.68 4392.7 3305.7 4384.72 3309.84 4379.21 3315.75 4368.2 3318.63 4360.59 3323.97 4346.48 3326.09 4334.72 3328.71 4304.68 3328.99 4301.39 3330.42 4286.23 3331.87 4271 3333.32 4255.77 3334.89 4239.21 3335.37 4234.2L3336.24 4225.09 3335.53 4222.92C3334.64 4220.2 3332.37 4215.87 3330.36 4213.06 3328.14 4209.97 3322.58 4203.29 3315.56 4195.26 3299.69 4177.15 3293.47 4168.02 3285.06 4150.51 3276.13 4131.92 3270.51 4114.51 3264.51 4086.88 3262.66 4078.35 3257.52 4051.85 3257.52 4050.84 3257.52 4049.52 3258.73 4048.24 3259.98 4048.24 3261.89 4048.24 3262.24 4049.02 3264.84 4059.18 3276.7 4105.44 3285.11 4127.82 3299.42 4151.27 3306.2 4162.39 3310.72 4167.87 3325.68 4183.13 3336.59 4194.27 3343.39 4201.7 3345.09 4204.36 3345.87 4205.58 3346.31 4205.39 3347.26 4203.4 3350.91 4195.77 3358.39 4184.03 3363.99 4177.15 3367.58 4172.73 3380.83 4159.31 3385.71 4155.13 3398.1 4144.54 3410.76 4135.92 3444.73 4114.92 3466.71 4101.33 3475.98 4094.98 3489.37 4084.39L3495 4079.93 3496.6 4076.48C3498.62 4072.13 3499.74 4068.16 3500.39 4063.05 3501.32 4055.84 3501 4048.33 3499.45 4040.52 3497.54 4030.92 3494.95 4023.67 3485.4 4001.22 3475.87 3978.77 3472.2 3965.81 3469.71 3945.65 3469.01 3939.91 3468.69 3920.78 3469.2 3914.36 3470.46 3898.46 3473.46 3884.46 3478.86 3869.21 3481.04 3863.08 3482.21 3861.88 3484.36 3863.61 3485.61 3864.62 3485.51 3865.93 3483.75 3871.44 3478.83 3886.87 3476.46 3902.55 3476.46 3919.67 3476.46 3938.94 3479.33 3955.82 3485.65 3973.69 3488.26 3981.1 3490.13 3985.38 3497.26 4000.39 3505.24 4017.2 3508.13 4024.18 3510.91 4033.4 3513.08 4040.55 3514.57 4049.9 3514.57 4056.21 3514.57 4058.65 3514.65 4059.21 3515.05 4059.12 3515.72 4058.95 3520.62 4052.87 3525.86 4045.67 3530.82 4038.85 3540.76 4023.67 3548.42 4011.21 3569.36 3977.15 3578.59 3963.85 3590.57 3950.44 3609.4 3929.37 3630 3911.7 3653.61 3896.33 3674.96 3882.44 3715.65 3861.29 3750.92 3845.75 3763.43 3840.23 3766.52 3838.97 3767.42 3838.97 3769.57 3838.97 3770.54 3841.66 3768.94 3843.2 3768.5 3843.63 3766.04 3844.95 3763.47 3846.14 3731.53 3860.96 3695.61 3880.27 3669.78 3896.51 3649.03 3909.55 3630.51 3924.58 3613.83 3941.89 3601.38 3954.82 3599.12 3957.74 3603.22 3955.59 3610.43 3951.82 3625.38 3946.92 3636.61 3944.66 3652.46 3941.46 3662.86 3940.68 3705.79 3939.49 3722.27 3939.04 3732.87 3938.05 3746.4 3935.71 3758.89 3933.56 3767.4 3931.54 3776.3 3928.6 3796.33 3922 3812.48 3914.62 3830.98 3903.62 3832.9 3902.48 3834.66 3901.54 3834.88 3901.54 3835.79 3901.54 3836.96 3902.37 3837.32 3903.27 3837.95 3904.8 3837.19 3905.9 3834.15 3907.83 3812.94 3921.29 3784.92 3933.8 3764.63 3938.84 3743.45 3944.12 3726.07 3946.54 3703.62 3947.35 3664.33 3948.78 3647.7 3950.63 3629.83 3955.59 3611.51 3960.68 3594.82 3969.74 3583.77 3980.58 3579.74 3984.53 3578.9 3985.87 3558.15 4021.57 3538.24 4055.83 3529.72 4067.67 3512.36 4085.18 3497.34 4100.33 3480.93 4113.16 3453.15 4131.48 3450.63 4133.15 3448.56 4134.63 3448.56 4134.79 3448.56 4135.11 3449.37 4135.24 3454.4 4135.77 3458.95 4136.26 3461.82 4136.87 3470.91 4139.31 3477.78 4141.16 3488.14 4143.45 3493.68 4144.35 3497.11 4144.9 3503.89 4144.57 3507.41 4143.66 3513.4 4142.13 3516.38 4140.46 3520.31 4136.42 3521.91 4134.77 3523.52 4133.34 3523.88 4133.22 3524.81 4132.92 3526.53 4133.92 3526.77 4134.9 3527.05 4136.05 3526.7 4137.02 3525.21 4139.07 3520.96 4144.97 3515.17 4148.65 3506.69 4150.85 3501.15 4152.28 3496.32 4152.62 3490.13 4151.99 3483.42 4151.32 3472.32 4149.67 3466.09 4148.44 3458.49 4146.92 3454.84 4146.6 3448.23 4146.83 3439.83 4147.12 3433.81 4148.19 3426.52 4150.67 3423.29 4151.77 3422.5 4152.23 3417.41 4155.96 3402.52 4166.86 3391.47 4177.2 3381.4 4189.64 3376.56 4195.61 3369.65 4207.13 3366.93 4213.74 3363.22 4222.78 3360 4235.36 3358.07 4248.28 3356.3 4260.22 3355.57 4269.7 3353.86 4303.5 3352.34 4333.72 3350.4 4347.61 3345.32 4364.65 3344.49 4367.44 3343.89 4369.81 3343.99 4369.91 3344.09 4370.02 3346.42 4369.23 3349.18 4368.16 3367.93 4360.94 3385.14 4357.71 3404.71 4357.71 3418.6 4357.71 3424.33 4358.37 3443.06 4362.14 3458.2 4365.2 3459.54 4365.38 3467.06 4365.37 3473.95 4365.37 3476.45 4364.97 3481.65 4363.19 3488.52 4360.8 3494.01 4357.26 3499.43 4351.72 3505.28 4345.74 3508.3 4340.63 3511.04 4332.05 3512.17 4328.52 3512.56 4327.7 3513.3 4327.28 3514.46 4326.62 3515.86 4327.1 3516.56 4328.36 3517.01 4329.19 3517.01 4329.57 3516.49 4332.2 3512.72 4350.96 3498.51 4367.04 3480.67 4372.73 3471.78 4375.56 3459.29 4376.06 3446.57 4374.09 3429.28 4371.42 3418.12 4370.65 3406.89 4371.35 3388.35 4372.49 3372.53 4376.55 3355.71 4384.47 3350.48 4386.94 3349.26 4387.64 3343.7 4391.39 3330.87 4400.04 3322.34 4408.6 3303.54 4431.73 3291.25 4446.84 3288.63 4450.53 3286.89 4455.15 3284.61 4461.22 3284.8 4466.89 3287.49 4472.39 3289.2 4475.89 3291.35 4478.42 3298.03 4484.81 3300.97 4487.62 3307.82 4494.6 3313.26 4500.33 3335.05 4523.26 3345.06 4531.64 3359 4538.62 3369.41 4543.84 3379.85 4546.32 3392.89 4546.67 3408.46 4547.08 3424.37 4543.87 3442.23 4536.63 3462.7 4528.34 3481.67 4515.28 3496.97 4498.97 3524.94 4469.12 3545.73 4430.17 3555.23 4389.84 3561.03 4365.21 3565.18 4333.61 3567.08 4299.56 3568.63 4271.94 3568.63 4232.72 3567.09 4189.46 3566.82 4181.84 3566.6 4168.35 3566.6 4159.49 3566.6 4144.62 3566.62 4143.31 3567.18 4142.63 3567.98 4141.61 3569.74 4141.58 3570.7 4142.57 3571.33 4143.22 3571.44 4143.75 3571.51 4146.64 3572 4166.23 3574.03 4181.74 3580.93 4218.36 3583.65 4232.86 3584.92 4239.88 3586.52 4249.3 3586.97 4251.95 3587.26 4252.92 3587.65 4252.99 3588.25 4253.1 3594.08 4246.85 3605.27 4234.09 3621.3 4215.82 3629.81 4207.73 3640.5 4200.63 3649.48 4194.68 3655.98 4191.67 3678.62 4182.96 3692.82 4177.5 3697.97 4175.29 3704.62 4171.84 3720.93 4163.38 3732.91 4152.15 3744.19 4134.75 3751.85 4122.95 3755.08 4115.91 3754.91 4111.4 3754.83 4109.55 3754.92 4109.29 3755.75 4108.55 3756.9 4107.53 3757.69 4107.52 3758.79 4108.53 3760.71 4110.23 3761.67 4121.92 3760.46 4128.66 3759.25 4135.34 3757.07 4141.19 3753.91 4146.24 3747.85 4155.9 3734.48 4167.82 3721.46 4175.18 3716.34 4178.08 3703.45 4184.94 3689.46 4192.22 3658.48 4208.33 3646.9 4215.5 3633.28 4227.04 3628.82 4230.82 3619.2 4240.6 3615.57 4245.05 3601.13 4262.77 3592.41 4281.27 3588.63 4302.15 3587.68 4307.4 3586.2 4319.06 3584.61 4333.96 3581.01 4367.43 3579.52 4379.13 3577.43 4390.22 3576.15 4397.01 3573.98 4406.71 3572.89 4410.5 3572.51 4411.79 3572.31 4412.94 3572.42 4413.07 3572.67 4413.3 3572.97 4413.01 3580.98 4403.87 3596.97 4385.67 3611.94 4372.84 3629.35 4362.4 3635.19 4358.89 3637.86 4357.49 3645.58 4353.9 3668.38 4343.29 3692.11 4335.04 3716.63 4329.22 3726.7 4326.82 3738.69 4324.48 3757.86 4321.15 3792.5 4315.12 3804.47 4312.21 3819.32 4306.19 3827.25 4302.97 3832.7 4300.06 3841.82 4294.19 3861.99 4281.19 3878.73 4265.37 3896.87 4242.15 3900.78 4237.14 3904.63 4231.82 3908.99 4225.39 3910.71 4222.85 3914.1 4218.08 3916.52 4214.79 3921.54 4207.96 3923.63 4204.73 3925.02 4201.7 3926.06 4199.42 3927.34 4194.75 3927.34 4193.24 3927.34 4191.78 3928.51 4190.51 3929.86 4190.51 3931.83 4190.51 3932.34 4191.39 3932.34 4194.83 3932.34 4207.43 3927.16 4221.4 3916.23 4238.21 3902.94 4258.67 3889.32 4275.71 3872.59 4292.82 3868.04 4297.46 3864.33 4301.4 3864.33 4301.58 3864.33 4301.76 3865.26 4301.99 3866.41 4302.16 3876.62 4303.31 3898.35 4310.43 3917 4318.75 3924.4 4322.05 3937.24 4328.6 3944.18 4332.6 3947.29 4334.41 3951.59 4336.79 3953.72 4337.9 3964.55 4343.57 3978.78 4348.38 3988.52 4349.68 4004.09 4351.76 4016.4 4351.22 4024.02 4348.14 4027.08 4346.89 4028.09 4346.98 4028.88 4348.54 4029.8 4350.36 4029.1 4351.36 4025.73 4353.09 4009.21 4361.54 3984.42 4360.33 3953.01 4349.54 3948.7 4348.06 3938.8 4344.39 3931 4341.38 3900.37 4329.56 3892.23 4327.16 3878 4325.75 3858.21 4323.77 3836.61 4326.98 3798.45 4337.56 3779.32 4342.86 3767.56 4345.6 3749.3 4349 3737.3 4351.23 3723.01 4354.48 3722.38 4355.14 3722.01 4355.48 3722.7 4355.89 3727.22 4357.87 3744.34 4365.36 3759.81 4374.56 3788.06 4394.03 3793.42 4397.74 3799.84 4401.94 3802.31 4403.38 3812.33 4409.21 3824.42 4414.82 3834.15 4418.17 3843.44 4421.37 3851.18 4422.7 3860.5 4422.7 3868.47 4422.7 3873.91 4421.95 3881.88 4419.73 3886.65 4418.4 3887.65 4418.41 3888.53 4419.78 3889.16 4420.77 3888.96 4422.03 3888.02 4422.94 3886.71 4424.18 3876.42 4427.5 3870.33 4428.64 3856.03 4431.31 3843.44 4430.51 3828.07 4425.95 3810.61 4420.78 3798.02 4415.09 3778.84 4403.71 3752.91 4388.32 3733.51 4378.73 3715.52 4372.41 3700.67 4367.19 3690.17 4366.21 3679.02 4369.02 3656.66 4374.65 3632.52 4391.67 3600.76 4424.22 3590.19 4435.04 3583.7 4442.27 3557.43 4472.43 3543.34 4488.61 3535.52 4497.24 3526.38 4506.72 3520.1 4513.23 3518.05 4515.54 3518.51 4515.62 3518.86 4515.67 3523.77 4514.32 3529.44 4512.61 3549.42 4506.59 3558.48 4504.22 3571.23 4501.68 3593.96 4497.14 3617.12 4494.86 3635.77 4495.33 3664.57 4496.05 3684.5 4499.43 3729.46 4511.25 3782.63 4525.22 3798.11 4528.38 3821.65 4530.06 3832.42 4530.84 3851.62 4530.3 3861.21 4529.01 3876.9 4526.86 3890.3 4522.55 3904.94 4514.94 3908.47 4513.09 3911.57 4511.59 3911.81 4511.59 3912.8 4511.59 3914 4512.99 3914 4514.14 3914 4515.72 3913.39 4516.31 3908.84 4519.09 3891.91 4529.42 3872.92 4535.93 3852.49 4538.41 3835.77 4540.43 3821.64 4540.68 3804.31 4539.26 3786.05 4537.76 3772.55 4535.51 3733.96 4527.53 3691.31 4518.71 3679.41 4516.78 3659.61 4515.51 3649.68 4514.88 3644.94 4514.85 3644.95 4515.46 3644.95 4515.69 3645.85 4517.04 3646.95 4518.44 3652.1 4525.04 3658.07 4536.28 3661.57 4545.94 3663.74 4551.95 3666.31 4560.67 3669.75 4573.69 3674.46 4591.52 3677.29 4599.86 3681.64 4608.77 3685.67 4617.02 3690.02 4624.04 3695.5 4631.13 3699.23 4635.95 3709.72 4646.72 3714.46 4650.58 3723.34 4657.82 3733.29 4663.85 3743.92 4668.41 3747.16 4669.81 3747.77 4670.19 3748.13 4671.08 3748.66 4672.34 3748.38 4673.27 3747.19 4674.18 3746.33 4674.84 3746.26 4674.84 3744.39 4674.23 3743.33 4673.89 3740.36 4672.77 3737.8 4671.73 3713.82 4661.99 3692.69 4644.42 3678.46 4622.4 3670.01 4609.32 3666.78 4601.84 3658.38 4575.89 3652.57 4557.98 3650.57 4552.54 3647.23 4545.57 3640.87 4532.29 3632.86 4522.65 3623.91 4517.47 3621.64 4516.16 3621.32 4516.15 3612.94 4517.24 3589.56 4520.26 3566.09 4526.12 3535.59 4536.55 3516.65 4543.03 3499.75 4549.55 3465.3 4563.65 3444.63 4572.11 3443.76 4572.45 3428.89 4577.76 3416.74 4582.1 3410.34 4584.62 3404.72 4587.26 3389.48 4594.44 3379.84 4602.85 3374.73 4613.4 3370.32 4622.5 3369.17 4633.25 3371.58 4642.83 3372.47 4646.4 3375.06 4651.72 3377.53 4655.06 3381.18 4660.01 3386.63 4665.25 3403.05 4679.55 3411.67 4687.05 3419.15 4694.05 3428.36 4703.22 3442.29 4717.07 3447.88 4724.3 3461.72 4746.36 3474.17 4766.19 3477.43 4770.96 3484.27 4779.36 3496.3 4794.13 3505.97 4802.63 3517.08 4808.22 3529.8 4814.61 3542.09 4816.94 3560.85 4816.53 3570.35 4816.31 3574.23 4815.9 3585.07 4813.88 3596 4811.84 3619.01 4806.47 3646.78 4799.49 3660.38 4796.06 3667.84 4793.6 3675.55 4789.99 3687.05 4784.61 3697.35 4775.91 3703.14 4766.71 3706.53 4761.33 3710.78 4751.71 3714.11 4741.91 3719.19 4726.94 3724.93 4718.01 3733.11 4712.35 3738.83 4708.39 3744.93 4706.01 3757.15 4702.95 3765.86 4700.76 3771.58 4698.91 3776.65 4696.61 3796.76 4687.51 3812.67 4669.99 3820.46 4648.39 3821.24 4646.22 3822.23 4643.08 3822.67 4641.38 3823.81 4636.89 3825.39 4635.48 3827.44 4637.13 3828.57 4638.04 3828.57 4639.03 3827.47 4643.83 3821.77 4668.67 3804.71 4691.27 3782.63 4703.22 3775.99 4706.83 3771.9 4708.4 3759.43 4712.18 3750.6 4714.85 3746.06 4716.59 3742.44 4718.66 3739.5 4720.35 3734.17 4725.65 3731.87 4729.18 3728.76 4733.96 3727.86 4736.1 3725.67 4743.96 3723.1 4753.16 3720.35 4760.63 3716.48 4768.93 3713.24 4775.89 3708.03 4783.3 3702.31 4789.09 3700.83 4790.59 3699.62 4792.02 3699.62 4792.28 3699.62 4792.62 3700.76 4792.68 3705.87 4792.46 3715.38 4792.05 3739.92 4792.17 3747.8 4792.63 3782.6 4794.82 3814.1 4800.76 3847.94 4811.54 3898.1 4827.51 3945.39 4853.87 3985.19 4888.06 3997.52 4898.65 4016.67 4917.22 4017.59 4919.47 4017.98 4920.43 4017.98 4920.73 4017.56 4921.57 4017.29 4922.09 4016.82 4922.65 4016.53 4922.76 4015.01 4923.36 4014.33 4922.94 4010.34 4919.12 3968.22 4878.73 3921.01 4849.66 3867.01 4830.88 3856.48 4827.21 3842.18 4822.99 3840.97 4823.19 3840.38 4823.24 3840.47 4823.53 3841.88 4825.5 3846.29 4831.7 3849.63 4838.08 3852.3 4845.42 3855.72 4854.79 3857.58 4863.22 3860.5 4882.79 3864.07 4906.68 3865.86 4914.58 3869.85 4924.1 3880.11 4948.58 3899.08 4967.8 3922.69 4977.68 3927.06 4979.51 3928.02 4980.25 3928.02 4981.78 3928.02 4982.92 3926.77 4984.2 3925.64 4984.2 3923.29 4984.2 3909.5 4977.83 3903.52 4973.98 3881.69 4959.89 3865.82 4938.64 3858.54 4913.74 3856.88 4908.03 3855.47 4901.19 3852.65 4885.02 3849.55 4867.3 3848.41 4862.04 3846.04 4854.64 3840.49 4837.32 3830.96 4824.35 3819.35 4818.35 3817.1 4817.17 3815.46 4816.78 3805.84 4815.07 3763.09 4807.5 3719.49 4807.33 3676.8 4814.62 3661.44 4817.22 3649.34 4820.05 3630.62 4825.41 3607.11 4832.13 3594.47 4835.44 3585.53 4837.2 3582.41 4837.82 3579.94 4838.47 3579.95 4838.67 3579.95 4838.85 3580.91 4840.45 3582.08 4842.17 3584.69 4846.01 3586.3 4848.82 3588.75 4853.84 3593.3 4863.18 3596.11 4872.35 3601.42 4895.15 3607.28 4920.34 3614.58 4940.53 3624.98 4960.29 3643.37 4995.27 3669.13 5025.16 3700.64 5048.13 3711.15 5055.79 3718.73 5060.53 3732.55 5068 3748.26 5076.54 3755.79 5081.73 3761.99 5088.35 3766.8 5093.54 3770.51 5099.52 3772.68 5105.59 3774.19 5109.84 3774.65 5112.66 3774.65 5117.55 3774.65 5127.08 3771.96 5133.51 3768.96 5131.14 3767.7 5130.15 3767.6 5129.36 3768.34 5126.39 3770.79 5116.56 3768.42 5107.12 3761.15 5097.54 3755.47 5090.08 3747.24 5084.3 3730.47 5076 3720.72 5071.21 3712.78 5067.01 3708.47 5064.49 3659.61 5035.49 3620.96 4991.17 3598.78 4938.72 3593.32 4925.81 3589.83 4915.45 3585.08 4898.03 3579.65 4878.11 3576.71 4869.66 3572.43 4861.72 3566.1 4849.99 3559.82 4844.21 3550.77 4841.79 3549.69 4841.51 3546.16 4841.04 3542.92 4840.76 3536.41 4840.18 3534.13 4839.9 3528.87 4838.89 3512.59 4835.81 3496.91 4828.34 3483.8 4817.42 3474.72 4809.86 3460.01 4794.03 3453.54 4784.87 3452.74 4783.73 3451.86 4782.84 3451.61 4782.88 3451.28 4782.94 3450.49 4785.62 3449.03 4791.68 3444.45 4810.76 3443.61 4816.4 3443.34 4829.77 3443.1 4841.92 3443.84 4850.66 3446.05 4861.61 3452.48 4893.6 3463.71 4919.49 3491.47 4966.32 3497.96 4977.24 3498.25 4977.98 3496.82 4979.36 3495.68 4980.45 3494.36 4980.3 3493.13 4978.96 3490.45 4976 3472.88 4950.95 3465.28 4939.24 3448.42 4913.26 3439.36 4895.01 3431.9 4872.05 3426.21 4854.5 3423.7 4840.1 3423.34 4822.98 3423.1 4810.78 3423.79 4802.16 3426.28 4787.07 3427.5 4779.63 3427.94 4774.86 3428.14 4766.71 3428.31 4760 3428.24 4758.06 3427.76 4755.08 3427.12 4751.11 3425.57 4745.93 3424.46 4744.06 3420.89 4738.03 3400.36 4718.7 3381.73 4703.82 3378.23 4701.02 3374.38 4697.49 3370.54 4693.55 3362.08 4684.86 3360.3 4683.83 3353.72 4683.87 3348.14 4683.9 3344 4685.96 3338.71 4691.33 3334.55 4695.54 3331.15 4700.67 3327.93 4707.58 3323.71 4716.65 3321.65 4723.74 3321.32 4730.34 3320.79 4741.06 3323.88 4752.34 3332.96 4772.88 3341.48 4792.15 3344.27 4800.28 3346.91 4813.57 3349.41 4826.14 3350.48 4836.57 3351.89 4862.3 3353.25 4887.01 3354.23 4896.74 3356.58 4908.81 3361.75 4935.4 3372.36 4955.69 3392.64 4977.83 3397.3 4982.92 3406.49 4991.51 3409.4 4993.54 3412.66 4995.81 3416.21 4998.63 3419.45 5001.59 3423.26 5005.05 3428.92 5009.2 3438.74 5015.87 3451.69 5024.62 3460.82 5030.2 3491.25 5047.99 3520.69 5065.18 3539.3 5076.99 3558.27 5090.52 3579.68 5105.74 3596.85 5121.7 3607.35 5136.13 3614.92 5146.55 3621.36 5157.62 3626.49 5168.93 3630.39 5177.58 3630.61 5178.52 3629.07 5179.8 3627.18 5181.33 3626.48 5180.74 3621.25 5173.38 3598.71 5141.66 3571.27 5114.39 3539.36 5091.96 3524.91 5081.83 3513.8 5075.31 3490.42 5063.2 3472.36 5053.86 3466.2 5051.05 3459.75 5049.02 3455.91 5047.84 3450.04 5046.65 3449.54 5047 3449.03 5047.34 3449.21 5049.02 3450.11 5052.14 3453.61 5064.29 3454.25 5074.17 3452.74 5092.95 3451.65 5106.58 3451.22 5132.32 3451.89 5144.18 3453.43 5171.5 3459.19 5197.49 3467.45 5214.44 3473.32 5226.44 3479.01 5234.54 3488.72 5244.67 3494.06 5250.25 3494.68 5251.04 3494.66 5252.03 3494.6 5254.06 3492.36 5255.05 3490.58 5253.76 3487.51 5251.59 3479.61 5244.03 3475.8 5239.63 3463.97 5225.95 3456.29 5212.21 3450.54 5194.33 3441.4 5166.02 3438 5139.54 3438.16 5098.08 3438.19 5088.4 3438.09 5078.37 3437.89 5075.85 3436.74 5060.24 3430.4 5044.13 3420.18 5030.99 3417.12 5027.09 3413.72 5024.17 3407.31 5020.07 3392.32 5010.39 3386.56 5005.79 3375.38 4994.33 3364.33 4983.02 3356.43 4972.94 3348.51 4960.09 3340.4 4946.95 3333.85 4931.3 3330.57 4917.19 3329.98 4914.65 3329.38 4912.27 3329.25 4911.9 3329 4911.22 3328.98 4911.22 3328.64 4911.9 3328.24 4912.66 3325.96 4923.62 3324.71 4930.77 3321.36 4949.86 3319.6 4966.47 3317.83 4995.86 3317.26 5005.2 3317.25 5036.23 3317.82 5045.61 3318.71 5060.44 3320.07 5075.26 3321.58 5086.62 3325.47 5115.82 3332.56 5144.33 3342.82 5172.09 3356.76 5209.84 3378.92 5240.62 3413.75 5270.61 3415.94 5272.54 3421.8 5277.38 3426.75 5281.38 3437.87 5290.37 3442.73 5294.57 3447.28 5299.02 3453.39 5305 3457.88 5310.09 3461.56 5315.17 3463.3 5317.6 3463.61 5318.24 3463.52 5319.28 3463.38 5320.81 3462.06 5321.89 3460.76 5321.6 3459.72 5321.3 3431.93 5302.33 3422.9 5295.71 3397.53 5277.13 3378.44 5259.99 3364.05 5242.75 3356.75 5234 3348.14 5221.55 3345.07 5215.32 3341.49 5208.06 3339.58 5205.84 3336.4 5205.1 3334.84 5204.75 3334.48 5204.75 3333.35 5205.34 3331.73 5206.14 3331.28 5207.12 3330.89 5210.68 3330.72 5212.21 3330.42 5214.93 3330.23 5216.61 3329.6 5222.34 3326.8 5230.64 3322.86 5238.55 3317.23 5249.81 3310.49 5259.25 3295.89 5276.44 3287 5286.86 3283.71 5291.02 3277.72 5299.32 3271.2 5308.36 3262.72 5322.04 3257.36 5332.12 3255.19 5336.22 3254.44 5336.96 3252.87 5336.62 3250.99 5336.22 3250.76 5335.33 3250.97 5329.65 3251.08 5326.88 3251.42 5323.48 3251.71 5322.04 3254.43 5309.39 3261.18 5297.39 3275.28 5280.1 3286.42 5266.46 3288.64 5263.69 3291.51 5259.94 3302.03 5246.06 3306.81 5234.99 3309.7 5217.7 3311.09 5209.4 3311.39 5205.05 3311.37 5192.65 3311.34 5171.55 3309.57 5158.11 3300.71 5111.77 3293.74 5075.36 3292.02 5059.79 3291.65 5029.85 3291.18 4993.24 3294.1 4961.48 3303.71 4898.07 3307.75 4871.43 3308.21 4867.07 3308.45 4853.18 3308.63 4842.47 3308.4 4837.52 3307.33 4830.51 3307.05 4828.63 3306.71 4826.89 3306.58 4826.65 3306.22 4825.99 3305.85 4826.59 3304.55 4829.97 3302.94 4834.13 3298.35 4843.56 3295.72 4848.13 3286.99 4863.25 3277.45 4875 3254.21 4899.25 3231.1 4923.34 3223.74 4931.92 3216.39 4943.29 3202.13 4965.38 3194.56 4989.54 3191.7 5022.2 3190.45 5036.47 3190.25 5060.29 3191.18 5081.48 3191.76 5094.58 3191.75 5095.37 3190.87 5096.11 3189.37 5097.34 3187.27 5096.7 3186.74 5094.82 3186.44 5093.79 3184.31 5073.13 3183.38 5062.17 3181.02 5034.45 3181.37 5008.81 3184.39 4989.34 3185.23 4983.91 3187.17 4975.11 3188.7 4969.68 3191.65 4959.3 3193.68 4953.87 3198 4944.73 3206.3 4927.14 3213.37 4917.09 3238.85 4886.6 3251.64 4871.3 3254.18 4868.13 3259.23 4861.29 3270.95 4845.38 3278.24 4831.13 3282.54 4815.75 3284.49 4808.75 3284.98 4805.34 3284.78 4800.25 3284.6 4795.29 3283.8 4791.91 3281.88 4787.69 3278.27 4779.78 3273.15 4774.77 3264.1 4770.31 3252.49 4764.59 3238.94 4762.45 3226.2 4764.34 3213.6 4766.21 3203.4 4770.78 3193.13 4779.13 3182.17 4788.02 3161.78 4816.93 3148.37 4842.58 3133.51 4871 3122.44 4905.1 3119.44 4931.73 3118.86 4936.81 3118.87 4957.42 3119.45 4962.86 3121.25 4979.9 3123.47 4992.85 3128.56 5016.02 3133.18 5037.07 3135.59 5048.83 3137.5 5059.65 3140.42 5076.15 3140.87 5080.45 3140.87 5091.96 3140.87 5118.93 3135.55 5135.43 3121.16 5153.12 3113.16 5163 3110.33 5167.65 3108.81 5173.48 3107.78 5177.43 3107.53 5188.05 3108.33 5193.68 3109.89 5204.8 3114.59 5216.21 3126.35 5237.46 3139.46 5261.07 3145.2 5275.21 3149.18 5293.49 3153.3 5312.36 3154.35 5330.79 3152.35 5348.92 3152.08 5351.34 3151.86 5353.51 3151.86 5353.71 3151.86 5353.86 3151.55 5354.4 3151.17 5354.85 3150.38 5355.69 3148.65 5355.84 3147.68 5355.14 3147.08 5354.7 3147.05 5353.96 3147.02 5340.32 3146.99 5329.06 3146.85 5325.06 3146.42 5321.6 3143.84 5301.19 3138.94 5284.3 3130.7 5267.4 3127.53 5260.93 3124.82 5256.18 3117.98 5245.12 3104.34 5223.08 3099.87 5214.14 3096.51 5202.23 3094.88 5196.45 3093.51 5187.61 3093.5 5182.82 3093.5 5181.14 3093.4 5180.54 3093.06 5180.54 3092.33 5180.54 3083.04 5189.24 3077.24 5195.36 3059.9 5213.69 3049.32 5232.96 3041.32 5260.78 3036.31 5278.17 3033.94 5293.24 3031.83 5321.05 3030.58 5337.65 3030.11 5365.82 3030.82 5381.92 3031.41 5395.26 3031.41 5395.16 3030.65 5395.9 3029.72 5396.84 3028.79 5397.04 3027.81 5396.55Z" fill="#FFFFFF" transform="matrix(1.00063 0 0 1 -1762.19 -3336)"/></g></g></g></g></svg>